<svg xmlns="http://www.w3.org/2000/svg" viewBox="0 0 64 48" fill="currentColor">
  <path d="M6.5 8C3.5 3 0.5 1 0 0.5c0.5 0.3 4 2 7 7.5 2 3.5 2.5 7.5 2.5 10C9.5 20 11 22.5 14 24c1 .5 2.5.8 4 .8V22c0-3 1-5.5 2.5-7.5 1.8-2.4 4.2-4 7-4.8V6.5c0-1.5.5-3 1.5-4C30 1.5 31 1 32 1s2 .5 3 1.5c1 1 1.5 2.5 1.5 4v3.2c2.8.8 5.2 2.4 7 4.8C45 16.5 46 19 46 22v2.8c1.5 0 3-.3 4-.8 3-1.5 4.5-4 4.5-6 0-2.5.5-6.5 2.5-10 3-5.5 6.5-7.2 7-7.5-.5.5-3.5 2.5-6.5 7.5-2 3.5-2.5 7-2.5 9.5 0 3-1.5 6-4.5 8-2 1.3-4.5 2-7 2.2v.3c0 2-.5 4-1.5 5.5L38 38v4c0 1.5-.5 3-1.5 4-1 1-2 1.5-3.2 1.5h-2.6c-1.2 0-2.2-.5-3.2-1.5-1-1-1.5-2.5-1.5-4v-4l-4-4.8c-1-1.5-1.5-3.5-1.5-5.5v-.3c-2.5-.2-5-.9-7-2.2-3-2-4.5-5-4.5-8 0-2.5-.5-6-2.5-9.5zM28 35v7c0 1 .3 2 1 2.7.6.6 1.3 1 2.2 1h1.6c.9 0 1.6-.4 2.2-1 .7-.7 1-1.7 1-2.7v-7l-4 2-4-2zm4-5l5-3c.8-1.2 1.2-2.8 1.2-4.5V22c0-3.5-1.8-6.5-4.5-8.2C33 13 32 12.5 32 12.5S31 13 30.3 13.8C27.8 15.5 26 18.5 26 22v.5c0 1.7.4 3.3 1.2 4.5l5 3zm-4-9.5c0-.8.7-1.5 1.5-1.5s1.5.7 1.5 1.5-.7 1.5-1.5 1.5-1.5-.7-1.5-1.5zm6 0c0-.8.7-1.5 1.5-1.5s1.5.7 1.5 1.5-.7 1.5-1.5 1.5-1.5-.7-1.5-1.5z"/>
</svg>
